<svg xmlns="http://www.w3.org/2000/svg" viewBox="0 0 148.6 12.96" fill="#455d58">
  <g>
    <path d="M5.14,2.2V12.75H3.08V2.2H.35L0,.21H8.23l-.35,2Z"></path>
    <path d="M26.36,7.36H20.65v5.39H18.59V.21h2.06V5.37h5.71V.21h2.06V12.75H26.36Z"></path>
    <path d="M40.34.21h6.24l-.35,2H42.4V5.37h3.83v2H42.4v3.39h3.83l.35,2H40.34Z"></path>
    <path d="M65.7,10.75h2.75c1.28,0,1.88-.32,1.88-1.17s-.44-1.15-1.09-1.64l-1.67-1.3a3.84,3.84,0,0,1-1.85-3.23c0-2.18,1.54-3.2,4-3.2h2.75l-.35,2h-2.3c-1.27,0-1.93.33-1.93,1.17S68.31,4.5,69,5l1.66,1.29a4,4,0,0,1,1.86,3.23c0,2.18-1.51,3.21-3.93,3.21H65.35Z"></path>
    <path d="M83.45,6.44C83.45,2.63,86,.21,89.79.21h1.52L91,2.2H90a4,4,0,0,0-4.36,4.24A4,4,0,0,0,90,10.75h1l.35,2H89.79A5.94,5.94,0,0,1,83.45,6.44Z"></path>
    <path d="M100.81,6.44a6.44,6.44,0,1,1,12.87,0,6.44,6.44,0,1,1-12.87,0Zm10.73,0a4.3,4.3,0,1,0-8.59,0,4.3,4.3,0,1,0,8.59,0Z"></path>
    <path d="M128.08,2.2V12.75H126V2.2h-2.74l-.35-2h8.23l-.35,2Z"></path>
    <path d="M145.51,2.2V12.75h-2V2.2h-2.74l-.35-2h8.23l-.35,2Z"></path>
  </g>
</svg>